<svg xmlns="http://www.w3.org/2000/svg" width="960.679" height="1098.247" viewBox="0 0 960.679 1098.247"><g transform="matrix(-0.999, 0.052, -0.052, -0.999, 669.528, 1106.916)"><path d="M344.225,0,688.45,599.04H0Z" transform="matrix(0.94, -0.342, 0.342, 0.94, -309.357, 339.765)" fill="#fff" opacity="0.2"/><path d="M241.963,0,483.926,421.34H0Z" transform="matrix(0.966, -0.259, 0.259, 0.966, 12.76, 159.096)" fill="#fff" opacity="0.2"/><path d="M218.493,0,436.987,381.106H0Z" transform="translate(-75.677 839.364) rotate(-47)" fill="#fff" opacity="0.2"/><path d="M130.761,0,261.521,227.993H0Z" transform="translate(393.423 757.848) rotate(-85)" fill="#fff" opacity="0.2"/><path d="M130.761,0,261.521,227.993H0Z" transform="translate(265.99 1122.374) rotate(-110)" fill="#fff" opacity="0.2"/><path d="M52.528,0l52.528,91.644H0Z" transform="translate(314.977 1110.271) rotate(-90)" fill="#fff" opacity="0.2"/><path d="M42.469,0,84.939,74.88H0Z" transform="translate(172.662 285.04) rotate(-114)" fill="#fff" opacity="0.2"/><path d="M110.085,0,220.17,191.112H0Z" transform="translate(394.513 402.067) rotate(-120)" fill="#fff" opacity="0.2"/></g></svg>