<svg xmlns="http://www.w3.org/2000/svg" width="240.714" height="168.5" viewBox="0 0 240.714 168.5"><path d="M202.2,75.442a36.15,36.15,0,0,0-33.7-49.121,35.923,35.923,0,0,0-20.047,6.093A60.183,60.183,0,0,0,36.107,62.429c0,1.016.038,2.031.075,3.047A54.175,54.175,0,0,0,54.161,170.75H192.571A48.14,48.14,0,0,0,202.2,75.442ZM147.964,98.536h-24.6v42.125a6.036,6.036,0,0,1-6.018,6.018H99.295a6.036,6.036,0,0,1-6.018-6.018V98.536h-24.6a6.007,6.007,0,0,1-4.25-10.268l39.643-39.643a6.039,6.039,0,0,1,8.5,0l39.643,39.643a6.015,6.015,0,0,1-4.25,10.268Z" transform="translate(0 -2.25)" fill="rgba(64,21,152,0.25)"/></svg>