<svg xmlns="http://www.w3.org/2000/svg" width="28" height="32" viewBox="0 0 28 32"><path d="M28,22.5V1.5A1.5,1.5,0,0,0,26.5,0H6A6,6,0,0,0,0,6V26a6,6,0,0,0,6,6H26.5A1.5,1.5,0,0,0,28,30.5v-1a1.512,1.512,0,0,0-.556-1.169,13.938,13.938,0,0,1,0-4.669A1.489,1.489,0,0,0,28,22.5ZM8,8.375A.376.376,0,0,1,8.375,8h13.25A.376.376,0,0,1,22,8.375v1.25a.376.376,0,0,1-.375.375H8.375A.376.376,0,0,1,8,9.625Zm0,4A.376.376,0,0,1,8.375,12h13.25a.376.376,0,0,1,.375.375v1.25a.376.376,0,0,1-.375.375H8.375A.376.376,0,0,1,8,13.625ZM23.838,28H6a2,2,0,0,1,0-4H23.838A22.5,22.5,0,0,0,23.838,28Z"/></svg>