<svg xmlns="http://www.w3.org/2000/svg" width="16.5" height="22" viewBox="0 0 16.5 22"><path d="M9.625,5.844V0H1.031A1.029,1.029,0,0,0,0,1.031V20.969A1.029,1.029,0,0,0,1.031,22H15.469A1.029,1.029,0,0,0,16.5,20.969V6.875H10.656A1.034,1.034,0,0,1,9.625,5.844Zm2.8,9.282h-2.8v3.438a.687.687,0,0,1-.688.688H7.563a.687.687,0,0,1-.688-.688V15.125h-2.8A.688.688,0,0,1,3.59,13.95L7.733,9.838a.733.733,0,0,1,1.033,0l4.143,4.112A.687.687,0,0,1,12.426,15.125ZM16.2,4.512,11.993.3a1.03,1.03,0,0,0-.73-.3H11V5.5h5.5V5.238A1.028,1.028,0,0,0,16.2,4.512Z" fill="#401598"/></svg>