<svg xmlns="http://www.w3.org/2000/svg" width="29.773" height="23.158" viewBox="0 0 29.773 23.158"><path d="M28.028,2.253C25.2,2.413,19.565,3,16.089,5.126a.8.8,0,0,0-.376.681V24.616a.818.818,0,0,0,1.2.7c3.576-1.8,8.748-2.291,11.3-2.425A1.612,1.612,0,0,0,29.774,21.3V3.839a1.62,1.62,0,0,0-1.746-1.587ZM13.684,5.126C10.209,3,4.579,2.414,1.746,2.253A1.621,1.621,0,0,0,0,3.839V21.3a1.611,1.611,0,0,0,1.552,1.585c2.558.134,7.732.626,11.308,2.427a.816.816,0,0,0,1.2-.7V5.8A.778.778,0,0,0,13.684,5.126Z" transform="translate(0 -2.25)"/></svg>