<svg xmlns="http://www.w3.org/2000/svg" width="12.192" height="11.813" viewBox="0 0 12.192 11.813"><g transform="translate(-0.002)"><path d="M4.791,8.438H3.484V.422A.426.426,0,0,0,3.05,0H2.177a.426.426,0,0,0-.434.422V8.438H.437a.434.434,0,0,0-.4.261.41.41,0,0,0,.094.46l2.177,2.531a.446.446,0,0,0,.615,0L5.1,9.158a.416.416,0,0,0,.094-.46A.434.434,0,0,0,4.791,8.438ZM11.324,6.75H7.84a.429.429,0,0,0-.437.422v.844a.429.429,0,0,0,.437.422H9.364L7.7,10.295a.824.824,0,0,0-.293.63v.466a.414.414,0,0,0,.126.3.446.446,0,0,0,.311.123h3.483a.426.426,0,0,0,.434-.422v-.844a.426.426,0,0,0-.434-.422H9.8l1.667-1.857a.831.831,0,0,0,.29-.63V7.172a.4.4,0,0,0-.126-.3A.444.444,0,0,0,11.324,6.75Zm.844-2.25L10.556.281A.439.439,0,0,0,10.146,0H9.018a.436.436,0,0,0-.41.281L6.994,4.5a.41.41,0,0,0,.056.384.441.441,0,0,0,.354.179h.677a.433.433,0,0,0,.413-.293l.12-.34h1.934l.12.34a.434.434,0,0,0,.416.293h.677a.441.441,0,0,0,.354-.179A.4.4,0,0,0,12.168,4.5ZM9.135,2.953l.445-1.266.445,1.266Zm0,0" transform="translate(0)" fill="#401598"/></g></svg>