<svg xmlns="http://www.w3.org/2000/svg" width="11.811" height="11.813" viewBox="0 0 11.811 11.813"><g transform="translate(-0.001)"><path d="M.422,3.375H1.688v8.016a.42.42,0,0,0,.422.422h.844a.42.42,0,0,0,.422-.422V3.375H4.641a.42.42,0,0,0,.391-.262.415.415,0,0,0-.09-.457L2.828.125a.42.42,0,0,0-.594,0L.125,2.656a.42.42,0,0,0,.3.719ZM10.969,6.75H7.594a.42.42,0,0,0-.422.422v.844a.42.42,0,0,0,.422.422H9.07L7.453,10.293a.846.846,0,0,0-.281.633v.465a.411.411,0,0,0,.125.3.4.4,0,0,0,.3.125h3.375a.42.42,0,0,0,.422-.422v-.844a.42.42,0,0,0-.422-.422H9.492L11.109,8.27a.846.846,0,0,0,.281-.633V7.172a.41.41,0,0,0-.125-.3A.4.4,0,0,0,10.969,6.75Zm.82-2.25L10.227.281A.429.429,0,0,0,9.828,0H8.734a.426.426,0,0,0-.4.281L6.773,4.5a.429.429,0,0,0,.055.383.417.417,0,0,0,.344.18h.656a.418.418,0,0,0,.4-.293l.117-.34h1.875l.113.34a.423.423,0,0,0,.4.293h.656a.417.417,0,0,0,.344-.18A.43.43,0,0,0,11.789,4.5ZM8.852,2.953l.43-1.266.43,1.266Zm0,0" fill="#401598"/></g></svg>