<svg xmlns="http://www.w3.org/2000/svg" width="31.292" height="21.904" viewBox="0 0 31.292 21.904"><path d="M4.694,11.638A3.129,3.129,0,1,0,1.565,8.508,3.132,3.132,0,0,0,4.694,11.638Zm21.9,0a3.129,3.129,0,1,0-3.129-3.129A3.132,3.132,0,0,0,26.6,11.638ZM28.163,13.2H25.033a3.12,3.12,0,0,0-2.205.909A7.152,7.152,0,0,1,26.5,19.461h3.227A1.563,1.563,0,0,0,31.292,17.9V16.331A3.132,3.132,0,0,0,28.163,13.2Zm-12.517,0A5.476,5.476,0,1,0,10.17,7.726,5.473,5.473,0,0,0,15.646,13.2ZM19.4,14.767H19a7.561,7.561,0,0,1-6.7,0h-.406A5.634,5.634,0,0,0,6.258,20.4v1.408a2.347,2.347,0,0,0,2.347,2.347H22.687a2.347,2.347,0,0,0,2.347-2.347V20.4A5.634,5.634,0,0,0,19.4,14.767ZM8.463,14.112A3.12,3.12,0,0,0,6.258,13.2H3.129A3.132,3.132,0,0,0,0,16.331V17.9a1.563,1.563,0,0,0,1.565,1.565H4.787A7.17,7.17,0,0,1,8.463,14.112Z" transform="translate(0 -2.25)" fill="#71a5ff"/></svg>